<?xml version="1.0" encoding="utf-8"?>
<!-- Generator: Adobe Illustrator 18.1.1, SVG Export Plug-In . SVG Version: 6.00 Build 0)  -->
<!DOCTYPE svg PUBLIC "-//W3C//DTD SVG 1.1//EN" "http://www.w3.org/Graphics/SVG/1.1/DTD/svg11.dtd">
<svg version="1.1" id="Layer_1" xmlns="http://www.w3.org/2000/svg" xmlns:xlink="http://www.w3.org/1999/xlink" x="0px" y="0px"
	 viewBox="0 0 270 105" enable-background="new 0 0 270 105" xml:space="preserve">
<g>
	
		<path id="h0" fill-rule="evenodd" clip-rule="evenodd" stroke-linecap="round" stroke-linejoin="round" stroke-miterlimit="10" d="
		M65.5,65.5c0,0-28,0.8-42,15c12.3-6.1,27-6,27-6"/>
	
		<path id="h1" fill-rule="evenodd" clip-rule="evenodd" stroke-linecap="round" stroke-linejoin="round" stroke-miterlimit="10" d="
		M73.5,43.5c0,0-37-0.2-67,29c25-15.7,43-13,43-13"/>
	
		<path id="h2" fill-rule="evenodd" clip-rule="evenodd" stroke-linecap="round" stroke-linejoin="round" stroke-miterlimit="10" d="
		M112.5,41.5c0,0-23.1-18.8-55-5c22.7-4.5,34,7,34,7"/>
	
		<path id="h3" fill-rule="evenodd" clip-rule="evenodd" stroke-linecap="round" stroke-linejoin="round" stroke-miterlimit="10" d="
		M178.5,36.5c0,0-17.6-34.5-83-11c33.5-9.3,50,1,50,1"/>
	
		<path id="h4" fill-rule="evenodd" clip-rule="evenodd" stroke-linecap="round" stroke-linejoin="round" stroke-miterlimit="10" d="
		M219.5,56.5c0,0-23.2-45.4-68-45c23.8,4.8,31.9,13.9,40,36"/>
	
		<path id="h5" fill-rule="evenodd" clip-rule="evenodd" stroke-linecap="round" stroke-linejoin="round" stroke-miterlimit="10" d="
		M165.5,37.5c0,0-29.2-5.1-46,19c26.6-12.8,48.2-12.2,59,6"/>
	
		<path id="h6" fill-rule="evenodd" clip-rule="evenodd" stroke-linecap="round" stroke-linejoin="round" stroke-miterlimit="10" d="
		M263.5,100.5c-6.7-33.1-50.9-60.6-33.2-96c1.1-0.5-17.7,8.7-4.7,46"/>

</g>
</svg>
